<svg width="20" height="20" viewBox="0 0 20 20" fill="none" xmlns="http://www.w3.org/2000/svg">
<path fill-rule="evenodd" clip-rule="evenodd" d="M10.0015 15.4545C13.0139 15.4545 15.456 13.0125 15.456 10C15.456 6.98754 13.0139 4.54545 10.0015 4.54545C6.989 4.54545 4.54692 6.98754 4.54692 10C4.54692 13.0125 6.989 15.4545 10.0015 15.4545ZM10.0015 13.6364C12.0098 13.6364 13.6378 12.0083 13.6378 10C13.6378 7.99169 12.0098 6.36364 10.0015 6.36364C7.99316 6.36364 6.3651 7.99169 6.3651 10C6.3651 12.0083 7.99316 13.6364 10.0015 13.6364Z" fill="white"/>
<path d="M15.456 3.63636C14.9539 3.63636 14.5469 4.04338 14.5469 4.54545C14.5469 5.04753 14.9539 5.45455 15.456 5.45455C15.9581 5.45455 16.3651 5.04753 16.3651 4.54545C16.3651 4.04338 15.9581 3.63636 15.456 3.63636Z" fill="white"/>
<path fill-rule="evenodd" clip-rule="evenodd" d="M0.595975 2.97823C0.00146484 4.14503 0.00146484 5.67244 0.00146484 8.72727V11.2727C0.00146484 14.3276 0.00146484 15.855 0.595975 17.0218C1.11892 18.0481 1.95336 18.8825 2.9797 19.4055C4.14649 20 5.67391 20 8.72874 20H11.2742C14.329 20 15.8564 20 17.0232 19.4055C18.0496 18.8825 18.884 18.0481 19.407 17.0218C20.0015 15.855 20.0015 14.3276 20.0015 11.2727V8.72727C20.0015 5.67244 20.0015 4.14503 19.407 2.97823C18.884 1.95189 18.0496 1.11746 17.0232 0.59451C15.8564 0 14.329 0 11.2742 0H8.72874C5.67391 0 4.14649 0 2.9797 0.59451C1.95336 1.11746 1.11892 1.95189 0.595975 2.97823ZM11.2742 1.81818H8.72874C7.17132 1.81818 6.11261 1.8196 5.29426 1.88646C4.49714 1.95158 4.0895 2.06963 3.80514 2.21452C3.12091 2.56315 2.56462 3.11945 2.21599 3.80367C2.0711 4.08803 1.95305 4.49568 1.88792 5.2928C1.82106 6.11114 1.81965 7.16986 1.81965 8.72727V11.2727C1.81965 12.8301 1.82106 13.8889 1.88792 14.7072C1.95305 15.5043 2.0711 15.912 2.21599 16.1963C2.56462 16.8806 3.12091 17.4368 3.80514 17.7855C4.0895 17.9304 4.49714 18.0484 5.29426 18.1135C6.11261 18.1804 7.17132 18.1818 8.72874 18.1818H11.2742C12.8316 18.1818 13.8903 18.1804 14.7087 18.1135C15.5058 18.0484 15.9134 17.9304 16.1978 17.7855C16.882 17.4368 17.4383 16.8806 17.7869 16.1963C17.9318 15.912 18.0499 15.5043 18.115 14.7072C18.1819 13.8889 18.1833 12.8301 18.1833 11.2727V8.72727C18.1833 7.16986 18.1819 6.11114 18.115 5.2928C18.0499 4.49568 17.9318 4.08803 17.7869 3.80367C17.4383 3.11945 16.882 2.56315 16.1978 2.21452C15.9134 2.06963 15.5058 1.95158 14.7087 1.88646C13.8903 1.8196 12.8316 1.81818 11.2742 1.81818Z" fill="white"/>
</svg>
