<svg width="20" height="20" viewBox="0 0 20 20" fill="none" xmlns="http://www.w3.org/2000/svg">
<g clip-path="url(#clip0_2089_10)">
<path fill-rule="evenodd" clip-rule="evenodd" d="M19.2611 3.74549C19.5261 2.45401 18.2576 1.38078 17.0278 1.85592L1.95348 7.68009C0.580163 8.21069 0.518972 10.1311 1.85572 10.748L5.13848 12.2631L6.70014 17.729C6.78126 18.0129 7.00655 18.2326 7.29238 18.3067C7.5782 18.3808 7.88188 18.2981 8.09067 18.0893L10.4963 15.6837L13.866 18.211C14.8441 18.9446 16.253 18.4103 16.4987 17.2125L19.2611 3.74549ZM2.55415 9.23475L17.6285 3.41058L14.866 16.8776L10.9181 13.9167C10.5863 13.6679 10.1221 13.7009 9.82882 13.9941L8.79852 15.0244L9.10807 13.3219L15.174 7.25594C15.4692 6.96073 15.5004 6.49263 15.247 6.16085C14.9936 5.82907 14.5338 5.73601 14.1713 5.94315L5.7941 10.7301L2.55415 9.23475ZM6.81552 12.066L7.32084 13.8347L7.51485 12.7676C7.54517 12.6008 7.62563 12.4473 7.74549 12.3274L9.59537 10.4775L6.81552 12.066Z" fill="white"/>
</g>
<defs>
<clipPath id="clip0_2089_10">
<rect width="20" height="20" fill="white" transform="translate(0.00146484)"/>
</clipPath>
</defs>
</svg>
